<?xml version="1.0" encoding="iso-8859-1"?>
<!-- Generator: Adobe Illustrator 22.1.0, SVG Export Plug-In . SVG Version: 6.00 Build 0)  -->
<svg version="1.1" xmlns="http://www.w3.org/2000/svg" xmlns:xlink="http://www.w3.org/1999/xlink" x="0px" y="0px"
	 viewBox="0 0 64 64" style="enable-background:new 0 0 64 64;" xml:space="preserve">
<g id="_x31_7">
	<ellipse style="fill:#FFFFFF;" cx="32.008" cy="32.025" rx="31.992" ry="31.975"/>
	<path style="fill:#000066;" d="M4.686,28.085l-3.941,2.849c0.211-0.966,0.463-1.917,0.759-2.849H4.686z M35.271,0.166
		C34.193,0.056,33.099,0,31.992,0c-3.575,0-7.009,0.595-10.22,1.676v8.246L35.271,0.166z M13.907,5.602
		c-1.003,0.689-1.962,1.436-2.878,2.231l2.878,2.08V5.602z M41.449,3.342V1.422c8.7,2.687,15.808,8.987,19.585,17.143l-1.793-0.674
		l1.434,2.156l-2.239,1.337l2.594,0.218l-0.355,2.566l1.802-1.87l0.018,0.019c0.965,3.047,1.489,6.291,1.489,9.657
		c0,17.659-14.323,31.975-31.992,31.975c-17.232,0-31.275-13.619-31.959-30.675l13.874-10.027V33.64h1.584h4.697h1.584V23.238
		L36.164,33.64h5.284v-2.538v-1.283l-10.442-7.547h10.442v-2.279v-6.824v-2.279H31.006L41.449,3.342z M35.181,53.088l-5.134-3.043
		l3.318-4.981l-5.598,2.115l-1.843-5.691l-1.83,5.691l-5.598-2.115l3.318,4.981l-5.148,3.043l5.967,0.519l-0.819,5.923l4.11-4.326
		l4.11,4.326l-0.819-5.923L35.181,53.088z M46.241,35.687l-2.239,1.337l2.594,0.218l-0.341,2.579l1.775-1.897l1.802,1.897
		l-0.369-2.579l2.594-0.232l-2.239-1.324l1.447-2.156l-2.431,0.914l-0.806-2.47l-0.792,2.47l-2.431-0.914L46.241,35.687z"/>
	<path style="fill:#D80909;" d="M25.718,10.889h-3.523L36.77,0.356c0.937,0.14,1.858,0.327,2.767,0.546L25.718,10.889z
		 M20.188,13.169V2.257c-1.635,0.649-3.207,1.423-4.697,2.322v8.59H6.125c-1.528,2.096-2.806,4.385-3.793,6.824h13.16V33.64h4.697
		V19.992h21.261v-6.824H20.188z M8.756,10.009c-0.273,0.289-0.541,0.582-0.804,0.88h2.022L8.756,10.009z M0.112,29.399
		C0.044,30.249,0,31.107,0,31.975c0,0.017,0.001,0.033,0.001,0.05l13.496-9.754H9.974L0.112,29.399z M25.718,22.271l15.73,11.368
		v-2.538l-12.221-8.83H25.718z"/>
</g>
<g id="Layer_1">
</g>
</svg>
