<?xml version="1.0" encoding="utf-8"?>
<!-- Generator: Adobe Illustrator 24.2.3, SVG Export Plug-In . SVG Version: 6.00 Build 0)  -->
<svg version="1.1" id="Layer_1" xmlns="http://www.w3.org/2000/svg" xmlns:xlink="http://www.w3.org/1999/xlink" x="0px" y="0px"
	 viewBox="0 0 64 64" style="enable-background:new 0 0 64 64;" xml:space="preserve">
<style type="text/css">
	.st0{clip-path:url(#SVGID_2_);}
	.st1{fill:#0052B4;}
	.st2{fill:#FFFFFF;}
	.st3{fill:#EB0001;}
</style>
<g id="Layer_1_1_">
</g>
<g>
	<defs>
		<circle id="SVGID_1_" cx="32" cy="32" r="32"/>
	</defs>
	<clipPath id="SVGID_2_">
		<use xlink:href="#SVGID_1_"  style="overflow:visible;"/>
	</clipPath>
	<g class="st0">
		<g id="_x32__1_">
			<circle class="st1" cx="32" cy="31.9" r="32"/>
		</g>
		<g>
			<g>
				
					<rect x="13.7" y="24.9" transform="matrix(-0.7071 -0.7071 0.7071 -0.7071 -2.5039 90.4273)" class="st2" width="7.5" height="41.7"/>
				
					<rect x="16.7" y="25.6" transform="matrix(-0.7071 -0.7071 0.7071 -0.7071 -2.0049 92.0663)" class="st3" width="2.8" height="41.7"/>
			</g>
			<g>
				
					<rect x="42.8" y="-4.3" transform="matrix(0.7071 0.7071 -0.7071 0.7071 25.3356 -28.0473)" class="st2" width="7.5" height="41.7"/>
				
					<rect x="44.6" y="-5" transform="matrix(0.7071 0.7071 -0.7071 0.7071 24.6567 -27.8406)" class="st3" width="2.8" height="41.7"/>
			</g>
		</g>
		<g>
			<g>
				
					<rect x="13.7" y="-4.2" transform="matrix(0.7071 -0.7071 0.7071 0.7071 -6.6531 17.1816)" class="st2" width="7.5" height="41.7"/>
				
					<rect x="15.3" y="-3.7" transform="matrix(0.7071 -0.7071 0.7071 0.7071 -7.2793 16.8477)" class="st3" width="2.8" height="41.7"/>
			</g>
			<g>
				
					<rect x="42.8" y="24.8" transform="matrix(-0.7071 0.7071 -0.7071 -0.7071 111.8215 45.0211)" class="st2" width="7.5" height="41.7"/>
				
					<rect x="45.9" y="24.2" transform="matrix(-0.7071 0.7071 -0.7071 -0.7071 112.6276 43.5093)" class="st3" width="2.8" height="41.7"/>
			</g>
		</g>
		
			<rect x="24.6" y="-9.3" transform="matrix(6.123234e-17 -1 1 6.123234e-17 8.871941e-02 63.9113)" class="st2" width="14.8" height="82.3"/>
		<g>
			<rect x="24.6" y="-9.2" class="st2" width="14.8" height="82.3"/>
			<rect x="28.2" y="-9.3" class="st3" width="7.6" height="82.3"/>
		</g>
		
			<rect x="28.2" y="-9.3" transform="matrix(-1.836970e-16 1 -1 -1.836970e-16 63.9113 -8.871941e-02)" class="st3" width="7.6" height="82.3"/>
	</g>
</g>
</svg>
