<svg width="128" height="128" xmlns="http://www.w3.org/2000/svg">
 <title/>

 <g>
  <title>background</title>
  <rect fill="none" id="canvas_background" height="402" width="582" y="-1" x="-1"/>
 </g>
 <g>
  <rect stroke="#f3cfd7" id="svg_9" height="123.537254" width="124.625686" y="2.078311" x="2.095317" stroke-width="1.5" fill="#f3cfd7"/>
  <text stroke="#f3cfd7" transform="translate(-0.7382256388664246,157.03759765625) scale(0.9614290595054626,0.9310023784637451) translate(0.7382256388664246,-157.03759765625) translate(-8.26915454864502,-32.9769401550293) scale(0.8778725862503052,0.9275251030921936) translate(8.26915454864502,32.9769401550293) translate(-12.195487976074219,-36.243465423583984) scale(1.0993154048919678,1.1083555221557617) translate(12.195487976074219,36.243465423583984) translate(-4.997897624969482,-16.66234016418457) scale(1.1643866300582886,1.1523230075836182) translate(4.997897624969482,16.66234016418457) translate(7.698815822601318,0.4569815397262573) scale(1.094544529914856,1.0518689155578613) translate(-7.698815822601318,-0.4569815397262573) translate(7.610628604888916,121.10903930664062) scale(1.1080293655395508,1.0752220153808594) translate(-7.610628604888916,-121.10903930664062) translate(7.60777473449707,121.10903930664062) scale(1.003496766090393,1) translate(-7.60777473449707,-121.10903930664062) translate(7.578218460083008,121.09158325195312) scale(1.0362060070037842,0.9786215424537659) translate(-7.578218460083008,-121.09158325195312) matrix(4.55514848859598,0,0,4.213960065909326,-131.32040113112726,-187.21213679881498) " xml:space="preserve" text-anchor="start" font-family="Helvetica, Arial, sans-serif" font-size="24" id="svg_11" y="64.009336" x="28.008321" stroke-width="0" fill="#ffffff">K</text>
  <text font-weight="bold" xml:space="preserve" text-anchor="start" font-family="Helvetica, Arial, sans-serif" font-size="24" id="svg_12" y="108.47273" x="92.435333" stroke-width="0" stroke="#f3cfd7" fill="#ffffff">CS</text>
 </g>
</svg>